<svg xmlns="http://www.w3.org/2000/svg" version="1.1" xmlns:xlink="http://www.w3.org/1999/xlink" xmlns:svgjs="http://svgjs.dev/svgjs" width="1440" height="560" preserveAspectRatio="none" viewBox="0 0 1440 560"><g mask="url(&quot;#SvgjsMask1118&quot;)" fill="none"><rect width="1440" height="560" x="0" y="0" fill="rgba(69, 95, 163, 1)"></rect><path d="M1464 560L0 560 L0 267.36Q63.58 210.94, 120 274.52Q199.5 234.02, 240 313.53Q268.99 222.51, 360 251.5Q441.72 213.22, 480 294.94Q488.9 231.84, 552 240.74Q593.3 210.04, 624 251.34Q692.4 247.75, 696 316.15Q716.82 216.96, 816 237.78Q891.37 193.14, 936 268.51Q989.08 249.59, 1008 302.67Q1057.42 232.09, 1128 281.51Q1172.15 205.66, 1248 249.82Q1307.38 237.2, 1320 296.58Q1323.69 228.27, 1392 231.96Q1478.95 246.91, 1464 333.86z" fill="#182f5d"></path><path d="M1536 560L0 560 L0 391.98Q51.5 371.49, 72 422.99Q102.13 333.13, 192 363.26Q240.62 291.88, 312 340.5Q389.96 298.46, 432 376.41Q498.24 322.65, 552 388.89Q576.44 341.33, 624 365.77Q664.4 286.17, 744 326.58Q814 276.57, 864 346.57Q928.34 338.91, 936 403.25Q981.04 376.29, 1008 421.34Q1020.66 362, 1080 374.66Q1149.43 324.1, 1200 393.53Q1212.83 334.36, 1272 347.18Q1299.52 302.69, 1344 330.21Q1398.53 312.74, 1416 367.26Q1469.59 300.85, 1536 354.43z" fill="#25467d"></path><path d="M1512 560L0 560 L0 417.73Q67.17 364.9, 120 432.07Q201.17 393.24, 240 474.4Q289.02 451.42, 312 500.44Q328.32 396.76, 432 413.09Q458.94 368.02, 504 394.96Q589.96 360.92, 624 446.89Q639.84 390.73, 696 406.57Q725.63 364.2, 768 393.84Q831.54 385.38, 840 448.92Q921.64 410.56, 960 492.2Q993.25 405.45, 1080 438.7Q1157.69 396.39, 1200 474.09Q1225.79 379.88, 1320 405.67Q1396.04 361.71, 1440 437.74Q1511 436.75, 1512 507.75z" fill="#356cb1"></path><path d="M1464 560L0 560 L0 546.69Q47.01 521.71, 72 568.72Q118.98 543.7, 144 590.68Q165.31 491.99, 264 513.3Q305.58 482.88, 336 524.45Q391.89 508.34, 408 564.23Q442.42 478.65, 528 513.07Q573.72 486.79, 600 532.51Q642.15 454.66, 720 496.81Q762.16 466.97, 792 509.13Q837.08 482.21, 864 527.3Q908.42 451.72, 984 496.15Q1029.14 469.29, 1056 514.43Q1151.33 489.76, 1176 585.09Q1199.28 536.38, 1248 559.66Q1277.79 517.45, 1320 547.24Q1320.52 475.76, 1392 476.28Q1439.12 451.4, 1464 498.52z" fill="white"></path></g><defs><mask id="SvgjsMask1118"><rect width="1440" height="560" fill="#ffffff"></rect></mask></defs></svg>